<svg width="863" height="574" viewBox="0 0 863 574" fill="none" xmlns="http://www.w3.org/2000/svg">
<rect width="863" height="574" fill="#E5E5E5"/>
<g id="undraw_Organizing_projects_0p9a 1" clip-path="url(#clip0)">
<g id="undraw_events_2p66 (1) 1">
<g id="undraw_events_2p66 (1) 2" clip-path="url(#clip1)">
<path id="Vector" opacity="0.1" d="M696.384 336.413C669.266 376.198 674.348 430.398 686.258 473.133C690.242 487.442 694.834 502.547 691.427 518.561C687.259 538.141 672.067 553.518 656.691 562.324C628.66 578.337 596.652 577.893 573.343 561.15C553.216 546.688 539.96 521.465 519.409 507.779C485.046 484.87 437.859 498.755 396.887 520.165C367.913 535.277 336.021 554.506 309.24 543.618C290.399 535.973 278.65 514.403 273.167 490.93C270.52 479.598 268.919 467.219 262.851 458.585C259.239 453.453 254.275 450.018 249.128 447.2C202.153 421.512 138.597 442.99 93.2964 413.9C62.699 394.26 45.3056 353.693 39.5882 310.314C33.8709 266.936 38.572 220.52 44.4575 174.821C48.6468 142.33 54.313 107.571 73.1175 81.1476C93.0113 53.1989 124.369 40.6998 151.625 43.3521C178.881 46.0045 202.548 61.6664 222.946 80.8095C248.44 104.733 271.434 135.288 304.43 143.006C326.904 148.264 351.448 142.177 375.348 138.736C415.253 132.98 454.602 134.632 493.673 136.793C531.077 138.862 568.708 141.435 603.561 153.37C628.221 161.824 647.15 179.423 670.166 190.867C685.168 198.327 702.094 199.275 716.073 209.221C733.291 221.475 748.191 244.093 741.297 272.685C734.724 299.884 710.772 315.301 696.384 336.413Z" fill="#020C53"/>
<path id="Vector_2" d="M522.823 246.486C522.823 246.486 596.666 190.369 613.087 162.076C629.508 133.782 650.411 109.401 650.411 109.401" stroke="#535461" stroke-width="2" stroke-miterlimit="10"/>
<path id="Vector_3" d="M640.702 172.652L608.759 166.12C608.759 166.12 616.297 196.675 640.702 172.652Z" fill="#020C53"/>
<path id="Vector_4" d="M591.892 141.461L610.272 166.425C610.272 166.425 574.338 168.779 591.892 141.461Z" fill="#020C53"/>
<path id="Vector_5" d="M653.27 149.185L624.076 144.544C624.076 144.544 642.412 169.84 653.27 149.185Z" fill="#020C53"/>
<path id="Vector_6" d="M610.067 126.873L624.449 143.954C624.449 143.954 598.991 146.142 610.067 126.873Z" fill="#020C53"/>
<path id="Vector_7" d="M639.173 123.471C639.173 123.471 664.032 124.545 666.956 126.7C669.881 128.855 663.249 141.487 653.796 139.425C644.342 137.363 639.173 123.471 639.173 123.471Z" fill="#020C53"/>
<path id="Vector_8" d="M629.238 103.32C629.238 103.32 639.393 120.103 639.013 123.299C638.632 126.495 623.535 130.082 620.486 117.994C617.437 105.906 629.238 103.32 629.238 103.32Z" fill="#020C53"/>
<path id="Vector_9" d="M660.818 116.138C661.967 112.836 659.948 109.315 656.308 108.272C652.668 107.23 648.785 109.061 647.635 112.362C646.486 115.664 648.505 119.186 652.145 120.228C655.785 121.271 659.668 119.439 660.818 116.138Z" fill="#FFCA3D"/>
<path id="Vector_10" d="M649.997 109.686C651.147 106.385 649.127 102.863 645.487 101.821C641.847 100.778 637.964 102.609 636.814 105.911C635.665 109.212 637.684 112.734 641.324 113.777C644.964 114.819 648.847 112.988 649.997 109.686Z" fill="#FFCA3D"/>
<path id="Vector_11" d="M292.498 466.462C292.498 466.462 304.349 434.488 229.219 395.943C229.219 395.943 152.934 375.766 160.735 306.474C160.735 306.474 72.7957 364.905 132.302 439.335C191.808 513.766 243.169 497.52 243.169 497.52L292.498 466.462Z" fill="#020C53"/>
<path id="Vector_12" d="M269.592 480.904C269.592 480.904 232.933 444.972 197.795 431.08C190.776 428.215 184.327 424.319 178.706 419.549C156.304 400.983 146.537 372.968 152.312 345.947L160.757 306.474" stroke="#535461" stroke-width="2" stroke-miterlimit="10"/>
<path id="Vector_13" d="M595.343 65.0142H178.158V504.324H595.343V65.0142Z" fill="url(#paint0_linear)"/>
<path id="Vector_14" d="M590.488 70.1266H183.02V499.198H590.488V70.1266Z" fill="#F7F7FD"/>
<path id="Vector_15" d="M310.637 118.492H207.629V125.931H310.637V118.492Z" fill="#E2E2EC"/>
<path id="Vector_16" d="M383.559 136.68H207.629V144.119H383.559V136.68Z" fill="#E2E2EC"/>
<path id="Vector_17" d="M570.974 111.383H497.87V168.594H570.974V111.383Z" fill="white"/>
<path id="Vector_18" d="M570.587 111.715V168.262H498.206V111.715H570.587ZM571.318 111.052H497.475V168.925H571.318V111.052Z" fill="#E2E2EC"/>
<path id="Vector_19" d="M497.139 111.383H424.034V168.594H497.139V111.383Z" fill="white"/>
<path id="Vector_20" d="M496.744 111.715V168.262H424.363V111.715H496.744ZM497.475 111.052H423.632V168.925H497.475V111.052Z" fill="#E2E2EC"/>
<path id="Vector_21" d="M570.974 169.257H497.87V226.467H570.974V169.257Z" fill="white"/>
<path id="Vector_22" d="M570.587 169.588V226.136H498.206V169.588H570.587ZM571.318 168.925H497.475V226.799H571.318V168.925Z" fill="#E2E2EC"/>
<path id="Vector_23" d="M497.139 169.257H424.034V226.467H497.139V169.257Z" fill="white"/>
<path id="Vector_24" d="M496.744 169.588V226.136H424.363V169.588H496.744ZM497.475 168.925H423.632V226.799H497.475V168.925Z" fill="#E2E2EC"/>
<path id="Vector_25" d="M423.303 169.257H350.198V226.467H423.303V169.257Z" fill="white"/>
<path id="Vector_26" d="M422.937 169.588V226.136H350.556V169.588H422.937ZM423.668 168.925H349.825V226.799H423.668V168.925Z" fill="#E2E2EC"/>
<path id="Vector_27" d="M349.467 169.257H276.362V226.467H349.467V169.257Z" fill="white"/>
<path id="Vector_28" d="M349.101 169.588V226.136H276.72V169.588H349.101ZM349.832 168.925H275.989V226.799H349.832V168.925Z" fill="#E2E2EC"/>
<path id="Vector_29" d="M275.631 169.257H202.526V226.467H275.631V169.257Z" fill="white"/>
<path id="Vector_30" d="M275.265 169.588V226.136H202.884V169.588H275.265ZM275.996 168.925H202.153V226.799H275.996V168.925Z" fill="#E2E2EC"/>
<path id="Vector_31" d="M570.974 227.124H497.87V284.334H570.974V227.124Z" fill="white"/>
<path id="Vector_32" d="M570.587 227.462V284.009H498.206V227.462H570.587ZM571.318 226.799H497.475V284.672H571.318V226.799Z" fill="#E2E2EC"/>
<path id="Vector_33" d="M497.139 227.124H424.034V284.334H497.139V227.124Z" fill="white"/>
<path id="Vector_34" d="M496.744 227.462V284.009H424.363V227.462H496.744ZM497.475 226.799H423.632V284.672H497.475V226.799Z" fill="#E2E2EC"/>
<path id="Vector_35" d="M423.303 227.124H350.198V284.334H423.303V227.124Z" fill="white"/>
<path id="Vector_36" d="M422.937 227.462V284.009H350.556V227.462H422.937ZM423.668 226.799H349.825V284.672H423.668V226.799Z" fill="#E2E2EC"/>
<path id="Vector_37" d="M349.467 227.124H276.362V284.334H349.467V227.124Z" fill="white"/>
<path id="Vector_38" d="M349.101 227.462V284.009H276.72V227.462H349.101ZM349.832 226.799H275.989V284.672H349.832V226.799Z" fill="#E2E2EC"/>
<path id="Vector_39" d="M275.631 227.124H202.526V284.334H275.631V227.124Z" fill="white"/>
<path id="Vector_40" d="M275.265 227.462V284.009H202.884V227.462H275.265ZM275.996 226.799H202.153V284.672H275.996V226.799Z" fill="#E2E2EC"/>
<path id="Vector_41" d="M570.974 284.997H497.87V342.208H570.974V284.997Z" fill="white"/>
<path id="Vector_42" d="M570.587 285.329V341.876H498.206V285.329H570.587ZM571.318 284.666H497.475V342.539H571.318V284.666Z" fill="#E2E2EC"/>
<path id="Vector_43" d="M497.139 284.997H424.034V342.208H497.139V284.997Z" fill="white"/>
<path id="Vector_44" d="M496.744 285.329V341.876H424.363V285.329H496.744ZM497.475 284.666H423.632V342.539H497.475V284.666Z" fill="#E2E2EC"/>
<path id="Vector_45" d="M423.303 284.997H350.198V342.208H423.303V284.997Z" fill="white"/>
<path id="Vector_46" d="M422.937 285.329V341.876H350.556V285.329H422.937ZM423.668 284.666H349.825V342.539H423.668V284.666Z" fill="#E2E2EC"/>
<path id="Vector_47" d="M349.467 284.997H276.362V342.208H349.467V284.997Z" fill="white"/>
<path id="Vector_48" d="M349.101 285.329V341.876H276.72V285.329H349.101ZM349.832 284.666H275.989V342.539H349.832V284.666Z" fill="#E2E2EC"/>
<path id="Vector_49" d="M275.631 284.997H202.526V342.208H275.631V284.997Z" fill="white"/>
<path id="Vector_50" d="M275.265 285.329V341.876H202.884V285.329H275.265ZM275.996 284.666H202.153V342.539H275.996V284.666Z" fill="#E2E2EC"/>
<path id="Vector_51" d="M570.974 342.864H497.87V400.074H570.974V342.864Z" fill="white"/>
<path id="Vector_52" d="M570.587 343.202V399.743H498.206V343.202H570.587ZM571.318 342.539H497.475V400.406H571.318V342.539Z" fill="#E2E2EC"/>
<path id="Vector_53" d="M497.139 342.864H424.034V400.074H497.139V342.864Z" fill="white"/>
<path id="Vector_54" d="M496.744 343.202V399.743H424.363V343.202H496.744ZM497.475 342.539H423.632V400.406H497.475V342.539Z" fill="#E2E2EC"/>
<path id="Vector_55" d="M423.303 342.864H350.198V400.074H423.303V342.864Z" fill="white"/>
<path id="Vector_56" d="M422.937 343.202V399.743H350.556V343.202H422.937ZM423.668 342.539H349.825V400.406H423.668V342.539Z" fill="#E2E2EC"/>
<path id="Vector_57" d="M349.467 342.864H276.362V400.074H349.467V342.864Z" fill="white"/>
<path id="Vector_58" d="M349.101 343.202V399.743H276.72V343.202H349.101ZM349.832 342.539H275.989V400.406H349.832V342.539Z" fill="#E2E2EC"/>
<path id="Vector_59" d="M275.631 342.864H202.526V400.074H275.631V342.864Z" fill="white"/>
<path id="Vector_60" d="M275.265 343.202V399.743H202.884V343.202H275.265ZM275.996 342.539H202.153V400.406H275.996V342.539Z" fill="#E2E2EC"/>
<path id="Vector_61" d="M570.974 400.738H497.87V457.948H570.974V400.738Z" fill="white"/>
<path id="Vector_62" d="M570.587 401.069V457.616H498.206V401.069H570.587ZM571.318 400.406H497.475V458.28H571.318V400.406Z" fill="#E2E2EC"/>
<path id="Vector_63" d="M497.139 400.738H424.034V457.948H497.139V400.738Z" fill="white"/>
<path id="Vector_64" d="M496.744 401.069V457.616H424.363V401.069H496.744ZM497.475 400.406H423.632V458.28H497.475V400.406Z" fill="#E2E2EC"/>
<path id="Vector_65" d="M423.303 400.738H350.198V457.948H423.303V400.738Z" fill="white"/>
<path id="Vector_66" d="M422.937 401.069V457.616H350.556V401.069H422.937ZM423.668 400.406H349.825V458.28H423.668V400.406Z" fill="#E2E2EC"/>
<path id="Vector_67" d="M349.467 400.738H276.362V457.948H349.467V400.738Z" fill="white"/>
<path id="Vector_68" d="M349.101 401.069V457.616H276.72V401.069H349.101ZM349.832 400.406H275.989V458.28H349.832V400.406Z" fill="#E2E2EC"/>
<path id="Vector_69" d="M275.631 400.738H202.526V457.948H275.631V400.738Z" fill="white"/>
<path id="Vector_70" d="M275.265 401.069V457.616H202.884V401.069H275.265ZM275.996 400.406H202.153V458.28H275.996V400.406Z" fill="#E2E2EC"/>
<path id="Vector_71" d="M356.076 510.397C358.167 508.959 360.134 507.261 360.74 505.192C361.052 504.097 360.887 502.936 360.28 501.948C359.673 500.961 358.67 500.223 357.48 499.888C354.489 499.039 351.294 500.551 348.867 502.122C346.44 503.694 343.669 505.438 340.496 505.113C343.778 502.958 345.343 499.463 344.436 496.287C344.281 495.603 343.898 494.978 343.34 494.497C341.68 493.171 338.668 493.748 336.679 494.782C330.355 498.097 328.593 504.43 328.557 510.152C327.92 508.09 328.454 505.942 328.44 503.82C328.425 501.698 327.643 499.357 325.23 498.217C323.686 497.61 322.014 497.318 320.331 497.361C317.487 497.282 314.322 497.494 312.384 499.032C309.971 500.942 310.6 504.151 312.699 506.253C314.797 508.355 317.992 509.675 320.924 511.127C323.161 512.234 325.427 513.527 326.773 515.278C326.949 515.51 327.096 515.759 327.211 516.02H345.029C348.953 514.568 352.664 512.679 356.076 510.397Z" fill="#FFCA3D"/>
<path id="Vector_72" d="M212.169 181.736C214.471 181.736 216.337 180.044 216.337 177.956C216.337 175.869 214.471 174.177 212.169 174.177C209.868 174.177 208.002 175.869 208.002 177.956C208.002 180.044 209.868 181.736 212.169 181.736Z" fill="#020C53"/>
<path id="Vector_73" d="M222.581 181.736C224.882 181.736 226.748 180.044 226.748 177.956C226.748 175.869 224.882 174.177 222.581 174.177C220.279 174.177 218.413 175.869 218.413 177.956C218.413 180.044 220.279 181.736 222.581 181.736Z" fill="#FFD037"/>
<path id="Vector_74" d="M359.329 237.766C361.631 237.766 363.497 236.074 363.497 233.987C363.497 231.899 361.631 230.207 359.329 230.207C357.028 230.207 355.162 231.899 355.162 233.987C355.162 236.074 357.028 237.766 359.329 237.766Z" fill="#020C53"/>
<path id="Vector_75" d="M369.748 237.766C372.05 237.766 373.915 236.074 373.915 233.987C373.915 231.899 372.05 230.207 369.748 230.207C367.446 230.207 365.581 231.899 365.581 233.987C365.581 236.074 367.446 237.766 369.748 237.766Z" fill="#020C53"/>
<path id="Vector_76" d="M582.153 346.047C584.455 346.047 586.321 344.355 586.321 342.267C586.321 340.18 584.455 338.488 582.153 338.488C579.852 338.488 577.986 340.18 577.986 342.267C577.986 344.355 579.852 346.047 582.153 346.047Z" fill="#020C53"/>
<path id="Vector_77" d="M584.237 341.644C586.539 341.644 588.404 339.952 588.404 337.864C588.404 335.777 586.539 334.085 584.237 334.085C581.935 334.085 580.07 335.777 580.07 337.864C580.07 339.952 581.935 341.644 584.237 341.644Z" fill="#020C53"/>
<path id="Vector_78" d="M586.321 337.864C588.622 337.864 590.488 336.172 590.488 334.085C590.488 331.998 588.622 330.305 586.321 330.305C584.019 330.305 582.153 331.998 582.153 334.085C582.153 336.172 584.019 337.864 586.321 337.864Z" fill="#020C53"/>
<path id="Vector_79" d="M508.573 181.736C510.875 181.736 512.741 180.044 512.741 177.956C512.741 175.869 510.875 174.177 508.573 174.177C506.272 174.177 504.406 175.869 504.406 177.956C504.406 180.044 506.272 181.736 508.573 181.736Z" fill="#020C53"/>
<path id="Vector_80" d="M518.984 181.736C521.286 181.736 523.152 180.044 523.152 177.956C523.152 175.869 521.286 174.177 518.984 174.177C516.683 174.177 514.817 175.869 514.817 177.956C514.817 180.044 516.683 181.736 518.984 181.736Z" fill="#020C53"/>
<path id="Vector_81" d="M529.403 181.736C531.704 181.736 533.57 180.044 533.57 177.956C533.57 175.869 531.704 174.177 529.403 174.177C527.101 174.177 525.236 175.869 525.236 177.956C525.236 180.044 527.101 181.736 529.403 181.736Z" fill="#020C53"/>
<path id="Vector_82" d="M539.814 181.736C542.116 181.736 543.981 180.044 543.981 177.956C543.981 175.869 542.116 174.177 539.814 174.177C537.512 174.177 535.647 175.869 535.647 177.956C535.647 180.044 537.512 181.736 539.814 181.736Z" fill="#020C53"/>
<path id="Vector_83" d="M508.573 298.829C510.875 298.829 512.741 297.137 512.741 295.049C512.741 292.962 510.875 291.27 508.573 291.27C506.272 291.27 504.406 292.962 504.406 295.049C504.406 297.137 506.272 298.829 508.573 298.829Z" fill="#FFCA3D"/>
<path id="Vector_84" d="M518.984 298.829C521.286 298.829 523.152 297.137 523.152 295.049C523.152 292.962 521.286 291.27 518.984 291.27C516.683 291.27 514.817 292.962 514.817 295.049C514.817 297.137 516.683 298.829 518.984 298.829Z" fill="#FFCA3D"/>
<path id="Vector_85" d="M529.403 298.829C531.704 298.829 533.57 297.137 533.57 295.049C533.57 292.962 531.704 291.27 529.403 291.27C527.101 291.27 525.236 292.962 525.236 295.049C525.236 297.137 527.101 298.829 529.403 298.829Z" fill="#FFCA3D"/>
<path id="Vector_86" d="M539.814 298.829C542.116 298.829 543.981 297.137 543.981 295.049C543.981 292.962 542.116 291.27 539.814 291.27C537.512 291.27 535.647 292.962 535.647 295.049C535.647 297.137 537.512 298.829 539.814 298.829Z" fill="#FFCA3D"/>
<path id="Vector_87" d="M285.749 237.766C288.051 237.766 289.917 236.074 289.917 233.987C289.917 231.899 288.051 230.207 285.749 230.207C283.448 230.207 281.582 231.899 281.582 233.987C281.582 236.074 283.448 237.766 285.749 237.766Z" fill="#FFD037"/>
<path id="Vector_88" d="M212.169 295.056C214.471 295.056 216.337 293.364 216.337 291.277C216.337 289.189 214.471 287.497 212.169 287.497C209.868 287.497 208.002 289.189 208.002 291.277C208.002 293.364 209.868 295.056 212.169 295.056Z" fill="#020C53"/>
<path id="Vector_89" d="M578.556 351.749C583.126 354.196 590.254 355.787 599.283 350.529L599.196 362.173C599.839 370.13 610.726 399.246 610.726 399.246L618.402 423.183C623.903 440.093 626.743 457.624 626.839 475.254C626.839 481.096 627.439 487.117 629.289 491.646C633.376 501.665 627.68 514.575 625.209 519.382C621.049 520.657 616.82 521.737 612.539 522.618C612.154 522.698 611.775 522.802 611.405 522.93L611.354 522.863C611.354 522.863 599.832 527.008 594.714 526.437C590.897 526.013 588.507 530.33 591.497 533.506C588.675 534.169 585.78 534.64 583.828 534.421C578.71 533.851 576.143 541.834 585.75 544.115C595.357 546.396 649.789 544.115 649.789 544.115C651.32 543.42 652.553 542.284 653.294 540.884C654.036 539.485 654.243 537.902 653.884 536.384C658.066 536.238 660.676 536.125 660.676 536.125C660.676 536.125 670.283 532.146 660.676 521.292L660.164 521.643L658.109 516.16V508.753C658.109 508.753 670.275 455.707 666.437 449.434C662.599 443.161 660.676 411.221 660.676 411.221L661.977 376.429C665.45 369.931 667.227 359.746 668.126 351.782C669.432 347.983 670.257 344.061 670.582 340.092C670.736 338.223 670.86 336.26 670.941 334.224C670.973 329.759 670.167 325.322 668.557 321.102C672.213 316.328 678.157 308.948 683.063 304.585C690.747 297.742 688.824 289.751 688.824 289.751L685.622 270.356L677.937 237.275C678.903 228.098 676.79 222.814 674.457 219.83C675.013 216.866 675.532 213.902 675.92 210.925C677.623 197.978 676.864 184.862 673.675 172.148C672.564 167.712 671.05 163.163 667.621 159.801C663.739 155.995 657.437 153.674 655.989 148.688C655.631 147.448 655.616 146.129 655.097 144.935C653.694 141.673 649.248 140.486 645.359 140.061C638.428 139.299 628.404 138.735 621.743 141.189C617.094 142.913 610.689 147.66 608.145 152.753C606.682 155.093 606.002 157.553 606.624 159.868C606.869 160.72 607.24 161.539 607.728 162.301C606.736 164.74 606.231 167.32 606.236 169.92C606.26 174.389 607.766 178.748 610.559 182.43C613.352 186.111 617.303 188.945 621.897 190.562C622.051 190.999 622.189 191.43 622.306 191.855C622.597 192.876 622.808 193.916 622.935 194.964C622.811 196.954 622.672 199.003 622.57 201.025C622.497 201.303 622.419 201.577 622.336 201.847C616.828 204.059 611.459 206.542 606.251 209.287C610.097 214.419 605.608 236.095 605.608 236.095C596.001 241.227 586.394 254.35 596.644 268.036C606.894 281.722 601.126 296.548 601.126 296.548L599.525 318.847V318.887L599.203 323.35H599.327L599.203 325.041L599.481 325.087V326.904C594.984 328.402 588.412 331.426 584.493 337.016C582.64 339.765 580.384 342.275 577.788 344.475C577.192 344.943 576.728 345.534 576.435 346.198C576.141 346.862 576.027 347.58 576.103 348.292C576.178 349.004 576.44 349.689 576.867 350.291C577.293 350.892 577.873 351.392 578.556 351.749ZM655.88 292.497C655.494 288.639 656.28 284.759 658.153 281.277C659.659 281.304 661.168 281.319 662.679 281.324C662.833 282.285 663.015 283.2 663.235 284.036C664.536 289.062 659.338 291.469 655.872 292.49L655.88 292.497Z" fill="url(#paint1_linear)"/>
<path id="Vector_90" d="M657.144 513.56L659.608 520.264L651.566 527.558L625.07 533.148L605.966 531.47L607.202 525.323C607.567 524.002 608.326 522.797 609.396 521.842C610.467 520.886 611.807 520.216 613.27 519.906C621.122 518.235 636.095 514.416 639.239 509.118L657.144 513.56Z" fill="#DB8B8B"/>
<path id="Vector_91" opacity="0.1" d="M657.144 513.56L659.608 520.264L651.566 527.558L625.07 533.148L605.966 531.47L607.202 525.323C607.567 524.002 608.326 522.797 609.396 521.842C610.467 520.886 611.807 520.216 613.27 519.906C621.122 518.235 636.095 514.416 639.239 509.118L657.144 513.56Z" fill="black"/>
<path id="Vector_92" d="M612.159 529.766L615.858 525.297L612.159 520.118C612.159 520.118 601.067 524.176 596.14 523.619C591.212 523.062 588.748 530.913 597.989 533.121C607.231 535.329 659.608 533.121 659.608 533.121C659.608 533.121 668.85 529.209 659.608 518.593L651.566 524.183C651.566 524.183 638.011 530.887 631.233 529.773L612.159 529.766Z" fill="#2E3037"/>
<path id="Vector_93" d="M595.518 539.255L614.622 540.932L641.118 535.342L649.161 528.049L648.51 526.272L647.589 523.778L646.667 521.352L628.799 516.882C627.886 518.234 626.633 519.37 625.143 520.198C619.338 523.798 608.912 526.398 602.793 527.697C602.545 527.752 602.301 527.821 602.062 527.903C600.766 528.298 599.6 528.982 598.673 529.893C597.745 530.804 597.085 531.912 596.754 533.115L595.518 539.255Z" fill="#DB8B8B"/>
<path id="Vector_94" opacity="0.1" d="M595.518 539.255L614.622 540.932L641.118 535.342L649.161 528.049L648.51 526.272L641.155 531.404C641.155 531.404 627.6 538.108 620.822 536.994H601.682L605.381 532.524L602.062 527.883C600.766 528.278 599.6 528.962 598.673 529.873C597.745 530.784 597.085 531.892 596.754 533.095L595.518 539.255Z" fill="black"/>
<path id="Vector_95" d="M601.682 537.59L605.381 533.121L601.682 527.943C601.682 527.943 590.59 532.001 585.663 531.444C580.735 530.887 578.271 538.737 587.512 540.946C596.754 543.154 649.131 540.946 649.131 540.946C649.131 540.946 658.373 537.033 649.131 526.418L641.089 532.007C641.089 532.007 627.534 538.711 620.757 537.597L601.682 537.59Z" fill="#2E3037"/>
<path id="Vector_96" d="M617.086 213.458C617.086 213.458 646.667 216.249 642.354 205.076C641.148 201.908 640.833 198.516 641.44 195.21C642.207 191.11 643.995 187.223 646.667 183.845L618.936 187.757C620.598 190.277 621.863 192.995 622.694 195.833C625.999 207.682 617.086 213.458 617.086 213.458Z" fill="#DB8B8B"/>
<path id="Vector_97" d="M667.614 340.875C667.614 340.875 667 364.905 660.837 376.641L659.601 410.73C659.601 410.73 661.451 442.027 665.15 448.174C668.85 454.321 657.108 506.293 657.108 506.293V515.238C657.108 515.238 637.368 521.942 631.84 514.117L637.39 447.611L634.926 355.403L667.614 340.875Z" fill="#474463"/>
<path id="Vector_98" opacity="0.1" d="M667.614 340.875C667.614 340.875 667 364.905 660.837 376.641L659.601 410.73C659.601 410.73 661.451 442.027 665.15 448.174C668.85 454.321 657.108 506.293 657.108 506.293V515.238C657.108 515.238 637.368 521.942 631.84 514.117L637.39 447.611L634.926 355.403L667.614 340.875Z" fill="black"/>
<path id="Vector_99" d="M679.941 263.752L683.64 272.697L686.718 291.701C687.134 294.348 686.848 297.047 685.883 299.574C684.917 302.101 683.302 304.382 681.169 306.229C673.777 312.933 663.915 326.904 663.915 326.904L652.217 295.076C652.217 295.076 663.915 293.398 662.08 286.131C660.244 278.864 660.837 265.403 660.837 265.403L679.941 263.752Z" fill="#FC6681"/>
<g id="Vector_100" opacity="0.05">
<path d="M664.058 325.844L652.892 295.465C653.21 295.403 653.639 295.312 654.139 295.185C655.226 294.909 656.668 294.462 658.057 293.777C659.442 293.095 660.814 292.159 661.72 290.884C662.641 289.59 663.06 287.972 662.564 286.009C661.662 282.435 661.351 277.304 661.27 273.032C661.229 270.904 661.246 269 661.273 267.63C661.286 266.944 661.302 266.393 661.314 266.012C661.316 265.959 661.318 265.91 661.319 265.863L679.619 264.282L683.156 272.834L686.224 291.778C686.224 291.779 686.225 291.779 686.225 291.78C686.627 294.34 686.35 296.95 685.415 299.396C684.481 301.842 682.915 304.056 680.842 305.851L680.842 305.851L680.833 305.859C677.103 309.241 672.768 314.439 669.376 318.772C667.678 320.942 666.211 322.902 665.168 324.32C664.711 324.941 664.336 325.459 664.058 325.844Z" fill="black"/>
<path d="M664.058 325.844L652.892 295.465C653.21 295.403 653.639 295.312 654.139 295.185C655.226 294.909 656.668 294.462 658.057 293.777C659.442 293.095 660.814 292.159 661.72 290.884C662.641 289.59 663.06 287.972 662.564 286.009C661.662 282.435 661.351 277.304 661.27 273.032C661.229 270.904 661.246 269 661.273 267.63C661.286 266.944 661.302 266.393 661.314 266.012C661.316 265.959 661.318 265.91 661.319 265.863L679.619 264.282L683.156 272.834L686.224 291.778C686.224 291.779 686.225 291.779 686.225 291.78C686.627 294.34 686.35 296.95 685.415 299.396C684.481 301.842 682.915 304.056 680.842 305.851L680.842 305.851L680.833 305.859C677.103 309.241 672.768 314.439 669.376 318.772C667.678 320.942 666.211 322.902 665.168 324.32C664.711 324.941 664.336 325.459 664.058 325.844Z" stroke="black"/>
<path d="M664.058 325.844L652.892 295.465C653.21 295.403 653.639 295.312 654.139 295.185C655.226 294.909 656.668 294.462 658.057 293.777C659.442 293.095 660.814 292.159 661.72 290.884C662.641 289.59 663.06 287.972 662.564 286.009C661.662 282.435 661.351 277.304 661.27 273.032C661.229 270.904 661.246 269 661.273 267.63C661.286 266.944 661.302 266.393 661.314 266.012C661.316 265.959 661.318 265.91 661.319 265.863L679.619 264.282L683.156 272.834L686.224 291.778C686.224 291.779 686.225 291.779 686.225 291.78C686.627 294.34 686.35 296.95 685.415 299.396C684.481 301.842 682.915 304.056 680.842 305.851L680.842 305.851L680.833 305.859C677.103 309.241 672.768 314.439 669.376 318.772C667.678 320.942 666.211 322.902 665.168 324.32C664.711 324.941 664.336 325.459 664.058 325.844Z" stroke="url(#paint2_linear)"/>
</g>
<path id="Vector_101" opacity="0.1" d="M625.172 520.204C633.076 531.477 645.381 525.091 647.559 523.818L646.667 521.352L628.799 516.882C627.895 518.233 626.653 519.371 625.172 520.204Z" fill="black"/>
<path id="Vector_102" d="M600.453 362.67C601.067 370.495 611.544 398.994 611.544 398.994L618.936 422.447C624.233 439.03 626.966 456.199 627.059 473.464C627.059 479.186 627.636 485.088 629.42 489.524C634.348 501.817 624.493 518.587 624.493 518.587C633.12 532.558 647.888 523.056 647.888 523.056V514.117C647.888 514.117 659.586 465.494 656.516 455.999C653.445 446.503 652.202 420.789 652.202 420.789V374.374C662.073 365.453 668.075 353.61 669.113 341.007C669.259 339.177 669.376 337.254 669.456 335.259C669.954 322.66 660.449 307.867 656.735 302.602C655.843 301.329 655.273 300.613 655.273 300.613L600.863 320.187L600.738 320.233V322.143V326.367L600.453 362.67Z" fill="#474463"/>
<path id="Vector_103" opacity="0.1" d="M618.936 187.75C620.598 190.27 621.863 192.989 622.694 195.826C625.706 196.863 628.917 197.342 632.136 197.235C635.356 197.128 638.519 196.437 641.44 195.203C642.208 191.106 643.996 187.221 646.667 183.845L618.936 187.75Z" fill="black"/>
<path id="Vector_104" d="M631.263 196.125C644.535 196.125 655.295 186.367 655.295 174.329C655.295 162.292 644.535 152.534 631.263 152.534C617.99 152.534 607.231 162.292 607.231 174.329C607.231 186.367 617.99 196.125 631.263 196.125Z" fill="#DB8B8B"/>
<path id="Vector_105" opacity="0.1" d="M600.453 326.347L600.716 326.393C626.554 331.214 658.994 306.786 658.994 306.786C658.125 305.457 657.374 304.066 656.75 302.628C655.858 301.355 655.287 300.639 655.287 300.639L600.877 320.213L600.738 322.169L600.453 326.347Z" fill="black"/>
<path id="Vector_106" d="M607.231 212.894C607.231 212.894 641.74 193.89 652.831 201.714L668.236 219.618C668.236 219.618 678.098 222.409 676.278 240.292L683.64 272.697L661.458 277.73C661.458 277.73 648.517 288.909 658.994 305.115C658.994 305.115 626.335 329.702 600.453 324.676L602.303 298.411C602.303 298.411 607.852 283.883 597.989 270.469C588.127 257.055 597.375 244.205 606.617 239.172C606.617 239.165 610.923 217.927 607.231 212.894Z" fill="#FFCA3D"/>
<path id="Vector_107" d="M605.381 326.904C605.381 326.904 592.44 329.138 586.277 338.083C584.499 340.766 582.329 343.22 579.828 345.377C579.266 345.84 578.83 346.415 578.555 347.058C578.28 347.7 578.174 348.391 578.245 349.077C578.316 349.763 578.562 350.425 578.963 351.009C579.365 351.594 579.912 352.086 580.559 352.446C585.451 355.098 593.427 356.749 603.502 349.243C620.786 336.406 605.381 326.904 605.381 326.904Z" fill="#DB8B8B"/>
<path id="Vector_108" opacity="0.1" d="M624.485 223.517C624.485 223.517 636.812 222.396 639.89 251.459C642.968 280.521 647.932 287.225 647.932 287.225C647.932 287.225 651.01 302.317 643.619 311.255C636.227 320.193 622.051 339.197 622.051 339.197C622.051 339.197 606.646 343.109 603.568 329.138L622.672 296.727C622.672 296.727 625.75 285.548 618.358 277.723C610.967 269.899 605.381 217.927 624.485 223.517Z" fill="black"/>
<path id="Vector_109" d="M623.228 221.839C623.228 221.839 635.554 220.718 638.632 249.781C641.71 278.844 646.675 285.548 646.675 285.548C646.675 285.548 649.753 300.639 642.361 309.577C634.969 318.516 620.793 337.52 620.793 337.52C620.793 337.52 605.388 341.432 602.31 327.461L621.415 295.049C621.415 295.049 624.493 283.87 617.101 276.046C609.709 268.221 604.145 216.249 623.228 221.839Z" fill="#FFCA3D"/>
<path id="Vector_110" opacity="0.1" d="M613.08 242.792C613.08 242.792 611.851 260.099 617.379 269.62C622.906 279.142 622.928 291.416 617.379 298.133" fill="black"/>
<path id="Vector_111" opacity="0.1" d="M610.002 221.56C610.002 221.56 614.929 217.091 629.106 216.528C643.282 215.964 649.438 212.059 649.438 212.059" fill="black"/>
<path id="Vector_112" opacity="0.1" d="M644.277 146.168C648.02 146.586 652.319 147.753 653.65 150.943C654.147 152.116 654.161 153.409 654.505 154.623C655.902 159.503 661.963 161.777 665.699 165.51C668.996 168.826 670.451 173.262 671.548 177.605C674.624 190.059 675.366 202.895 673.741 215.573C672.542 224.856 670.085 233.967 669.398 243.276C668.711 252.586 669.968 262.38 675.576 270.204C677.989 273.566 681.176 276.523 682.887 280.223C679.356 282.822 674.479 283.194 669.924 283.333C664.626 283.496 659.326 283.496 654.023 283.333C651.244 283.247 648.342 283.081 645.944 281.808C644.168 280.778 642.709 279.357 641.703 277.677C638.669 273.035 637.909 267.399 638.048 261.988C638.186 256.578 639.122 251.193 639.232 245.776C639.29 242.825 639.035 239.689 637.163 237.275C635.81 235.531 633.756 234.358 632.001 232.945C625.421 227.641 623.14 219.14 622.921 211.15C622.701 203.16 624.156 195.157 623.41 187.193C623.118 184.077 621.831 180.33 618.453 179.727C617.386 179.535 616.26 179.727 615.237 179.355C612.524 178.407 612.787 174.939 612.012 172.4C611.142 169.549 608.459 167.347 607.706 164.443C605.929 157.679 615.419 149.61 621.641 147.256C627.965 144.856 637.609 145.426 644.277 146.168Z" fill="black"/>
<path id="Vector_113" d="M644.891 145.054C648.634 145.472 652.933 146.639 654.264 149.829C654.761 151.002 654.776 152.295 655.119 153.509C656.516 158.389 662.577 160.663 666.313 164.396C669.61 167.712 671.065 172.148 672.162 176.491C675.238 188.945 675.98 201.781 674.355 214.459C673.156 223.742 670.699 232.853 670.012 242.162C669.325 251.472 670.582 261.266 676.19 269.09C678.603 272.452 681.791 275.409 683.501 279.109C679.97 281.708 675.093 282.08 670.539 282.219C665.24 282.382 659.94 282.382 654.637 282.219C651.858 282.133 648.956 281.967 646.558 280.694C644.782 279.664 643.323 278.243 642.317 276.563C639.283 271.921 638.523 266.285 638.662 260.874C638.801 255.464 639.736 250.079 639.846 244.662C639.905 241.711 639.649 238.575 637.777 236.161C636.424 234.418 634.37 233.244 632.615 231.832C626.035 226.527 623.754 218.026 623.535 210.036C623.315 202.046 624.77 194.043 624.025 186.079C623.732 182.963 622.445 179.216 619.068 178.613C618 178.421 616.874 178.613 615.851 178.242C613.138 177.293 613.401 173.825 612.626 171.286C611.756 168.435 609.073 166.233 608.32 163.329C606.543 156.565 616.033 148.496 622.255 146.142C628.579 143.735 638.223 144.305 644.891 145.054Z" fill="#472727"/>
</g>
</g>
</g>
<defs>
<linearGradient id="paint0_linear" x1="386.754" y1="504.317" x2="386.754" y2="65.0142" gradientUnits="userSpaceOnUse">
<stop stop-color="#808080" stop-opacity="0.25"/>
<stop offset="0.54" stop-color="#808080" stop-opacity="0.12"/>
<stop offset="1" stop-color="#808080" stop-opacity="0.1"/>
</linearGradient>
<linearGradient id="paint1_linear" x1="-205839" y1="327502" x2="-205839" y2="79246.5" gradientUnits="userSpaceOnUse">
<stop stop-color="#808080" stop-opacity="0.25"/>
<stop offset="0.54" stop-color="#808080" stop-opacity="0.12"/>
<stop offset="1" stop-color="#808080" stop-opacity="0.1"/>
</linearGradient>
<linearGradient id="paint2_linear" x1="669.56" y1="263.752" x2="669.56" y2="326.904" gradientUnits="userSpaceOnUse">
<stop stop-color="white"/>
<stop offset="1" stop-color="white" stop-opacity="0"/>
</linearGradient>
<clipPath id="clip0">
<rect width="862.844" height="574" fill="white"/>
</clipPath>
<clipPath id="clip1">
<rect width="706" height="531" fill="white" transform="translate(37 43)"/>
</clipPath>
</defs>
</svg>
