<svg width="733" height="640" viewBox="0 0 733 640" fill="none" xmlns="http://www.w3.org/2000/svg">
<g id="undraw_events_2p66 1" clip-path="url(#clip0)">
<path id="Vector" opacity="0.1" d="M668.88 281.5C631.79 341.5 638.74 423.24 655.03 487.69C660.48 509.27 666.76 532.05 662.1 556.2C656.4 585.73 635.62 608.92 614.59 622.2C576.25 646.35 532.47 645.68 500.59 620.43C473.06 598.62 454.93 560.58 426.82 539.94C379.82 505.39 315.28 526.33 259.24 558.62C219.61 581.41 175.99 610.41 139.36 593.99C113.59 582.46 97.52 549.93 90.02 514.53C86.4 497.44 84.21 478.77 75.91 465.75C70.97 458.01 64.18 452.83 57.14 448.58C-7.11002 409.84 -94.04 442.23 -156 398.36C-197.85 368.74 -221.64 307.56 -229.46 242.14C-237.28 176.72 -230.85 106.72 -222.8 37.8C-217.07 -11.2 -209.32 -63.62 -183.6 -103.47C-156.39 -145.62 -113.5 -164.47 -76.22 -160.47C-38.94 -156.47 -6.57001 -132.85 21.33 -103.98C56.2 -67.9 87.65 -21.82 132.78 -10.18C163.52 -2.25001 197.09 -11.43 229.78 -16.62C284.36 -25.3 338.18 -22.81 391.62 -19.55C442.78 -16.43 494.25 -12.55 541.92 5.44998C575.65 18.2 601.54 44.74 633.02 62C653.54 73.25 676.69 74.68 695.81 89.68C719.36 108.16 739.74 142.27 730.31 185.39C721.32 226.41 688.56 249.66 668.88 281.5Z" fill="#6C63FF"/>
<path id="Vector_2" d="M431.49 145.88C431.49 145.88 532.49 61.25 554.95 18.58C577.41 -24.09 606 -60.86 606 -60.86" stroke="#535461" stroke-width="2" stroke-miterlimit="10"/>
<path id="Vector_3" d="M592.72 34.53L549.03 24.68C549.03 24.68 559.34 70.76 592.72 34.53Z" fill="#6C63FF"/>
<path id="Vector_4" d="M525.96 -12.51L551.1 25.14C551.1 25.14 501.95 28.69 525.96 -12.51Z" fill="#020C53"/>
<path id="Vector_5" d="M609.91 -0.859985L569.98 -7.85999C569.98 -7.85999 595.06 30.29 609.91 -0.859985Z" fill="#6C63FF"/>
<path id="Vector_6" d="M116.46 477.63C116.46 477.63 132.67 429.41 29.91 371.28C29.91 371.28 -74.43 340.85 -63.76 236.35C-63.76 236.35 -184.04 324.47 -102.65 436.72C-21.26 548.97 48.99 524.47 48.99 524.47L116.46 477.63Z" fill="#6C63FF"/>
<path id="Vector_7" d="M85.13 499.41C85.13 499.41 34.99 445.22 -13.07 424.27C-22.6706 419.949 -31.4923 414.073 -39.18 406.88C-69.82 378.88 -83.18 336.63 -75.28 295.88L-63.73 236.35" stroke="#535461" stroke-width="2" stroke-miterlimit="10"/>
<path id="Vector_8" d="M530.68 -127.8H-39.93V534.73H530.68V-127.8Z" fill="url(#paint0_linear)"/>
<path id="Vector_9" d="M524.04 -120.09H-33.28V527H524.04V-120.09Z" fill="#F7F7FD"/>
<path id="Vector_10" d="M497.35 -57.87H397.36V28.41H497.35V-57.87Z" fill="white"/>
<path id="Vector_11" d="M496.82 -57.37V27.91H397.82V-57.37H496.82ZM497.82 -58.37H396.82V28.91H497.82V-58.37Z" fill="#E2E2EC"/>
<path id="Vector_12" d="M396.36 -57.87H296.37V28.41H396.36V-57.87Z" fill="white"/>
<path id="Vector_13" d="M395.82 -57.37V27.91H296.82V-57.37H395.82ZM396.82 -58.37H295.82V28.91H396.82V-58.37Z" fill="#E2E2EC"/>
<path id="Vector_14" d="M497.35 29.41H397.36V115.69H497.35V29.41Z" fill="white"/>
<path id="Vector_15" d="M496.82 29.91V115.19H397.82V29.91H496.82ZM497.82 28.91H396.82V116.19H497.82V28.91Z" fill="#E2E2EC"/>
<path id="Vector_16" d="M396.36 29.41H296.37V115.69H396.36V29.41Z" fill="white"/>
<path id="Vector_17" d="M395.82 29.91V115.19H296.82V29.91H395.82ZM396.82 28.91H295.82V116.19H396.82V28.91Z" fill="#E2E2EC"/>
<path id="Vector_18" d="M295.37 29.41H195.38V115.69H295.37V29.41Z" fill="white"/>
<path id="Vector_19" d="M294.87 29.91V115.19H195.87V29.91H294.87ZM295.87 28.91H194.87V116.19H295.87V28.91Z" fill="#E2E2EC"/>
<path id="Vector_20" d="M194.38 29.41H94.39V115.69H194.38V29.41Z" fill="white"/>
<path id="Vector_21" d="M193.88 29.91V115.19H94.88V29.91H193.88ZM194.88 28.91H93.88V116.19H194.88V28.91Z" fill="#E2E2EC"/>
<path id="Vector_22" d="M93.39 29.41H-6.60001V115.69H93.39V29.41Z" fill="white"/>
<path id="Vector_23" d="M92.89 29.91V115.19H-6.10999V29.91H92.89ZM93.89 28.91H-7.10999V116.19H93.89V28.91Z" fill="#E2E2EC"/>
<path id="Vector_24" d="M497.35 116.68H397.36V202.96H497.35V116.68Z" fill="white"/>
<path id="Vector_25" d="M496.82 117.19V202.47H397.82V117.19H496.82ZM497.82 116.19H396.82V203.47H497.82V116.19Z" fill="#E2E2EC"/>
<path id="Vector_26" d="M396.36 116.68H296.37V202.96H396.36V116.68Z" fill="white"/>
<path id="Vector_27" d="M395.82 117.19V202.47H296.82V117.19H395.82ZM396.82 116.19H295.82V203.47H396.82V116.19Z" fill="#E2E2EC"/>
<path id="Vector_28" d="M295.37 116.68H195.38V202.96H295.37V116.68Z" fill="white"/>
<path id="Vector_29" d="M294.87 117.19V202.47H195.87V117.19H294.87ZM295.87 116.19H194.87V203.47H295.87V116.19Z" fill="#E2E2EC"/>
<path id="Vector_30" d="M194.38 116.68H94.39V202.96H194.38V116.68Z" fill="white"/>
<path id="Vector_31" d="M193.88 117.19V202.47H94.88V117.19H193.88ZM194.88 116.19H93.88V203.47H194.88V116.19Z" fill="#E2E2EC"/>
<path id="Vector_32" d="M93.39 116.68H-6.60001V202.96H93.39V116.68Z" fill="white"/>
<path id="Vector_33" d="M92.89 117.19V202.47H-6.10999V117.19H92.89ZM93.89 116.19H-7.10999V203.47H93.89V116.19Z" fill="#E2E2EC"/>
<path id="Vector_34" d="M497.35 203.96H397.36V290.24H497.35V203.96Z" fill="white"/>
<path id="Vector_35" d="M496.82 204.46V289.74H397.82V204.46H496.82ZM497.82 203.46H396.82V290.74H497.82V203.46Z" fill="#E2E2EC"/>
<path id="Vector_36" d="M396.36 203.96H296.37V290.24H396.36V203.96Z" fill="white"/>
<path id="Vector_37" d="M395.82 204.46V289.74H296.82V204.46H395.82ZM396.82 203.46H295.82V290.74H396.82V203.46Z" fill="#E2E2EC"/>
<path id="Vector_38" d="M295.37 203.96H195.38V290.24H295.37V203.96Z" fill="white"/>
<path id="Vector_39" d="M294.87 204.46V289.74H195.87V204.46H294.87ZM295.87 203.46H194.87V290.74H295.87V203.46Z" fill="#E2E2EC"/>
<path id="Vector_40" d="M194.38 203.96H94.39V290.24H194.38V203.96Z" fill="white"/>
<path id="Vector_41" d="M193.88 204.46V289.74H94.88V204.46H193.88ZM194.88 203.46H93.88V290.74H194.88V203.46Z" fill="#E2E2EC"/>
<path id="Vector_42" d="M93.39 203.96H-6.60001V290.24H93.39V203.96Z" fill="white"/>
<path id="Vector_43" d="M92.89 204.46V289.74H-6.10999V204.46H92.89ZM93.89 203.46H-7.10999V290.74H93.89V203.46Z" fill="#E2E2EC"/>
<path id="Vector_44" d="M497.35 291.23H397.36V377.51H497.35V291.23Z" fill="white"/>
<path id="Vector_45" d="M496.82 291.74V377.01H397.82V291.74H496.82ZM497.82 290.74H396.82V378.01H497.82V290.74Z" fill="#E2E2EC"/>
<path id="Vector_46" d="M396.36 291.23H296.37V377.51H396.36V291.23Z" fill="white"/>
<path id="Vector_47" d="M395.82 291.74V377.01H296.82V291.74H395.82ZM396.82 290.74H295.82V378.01H396.82V290.74Z" fill="#E2E2EC"/>
<path id="Vector_48" d="M295.37 291.23H195.38V377.51H295.37V291.23Z" fill="white"/>
<path id="Vector_49" d="M294.87 291.74V377.01H195.87V291.74H294.87ZM295.87 290.74H194.87V378.01H295.87V290.74Z" fill="#E2E2EC"/>
<path id="Vector_50" d="M194.38 291.23H94.39V377.51H194.38V291.23Z" fill="white"/>
<path id="Vector_51" d="M193.88 291.74V377.01H94.88V291.74H193.88ZM194.88 290.74H93.88V378.01H194.88V290.74Z" fill="#E2E2EC"/>
<path id="Vector_52" d="M93.39 291.23H-6.60001V377.51H93.39V291.23Z" fill="white"/>
<path id="Vector_53" d="M92.89 291.74V377.01H-6.10999V291.74H92.89ZM93.89 290.74H-7.10999V378.01H93.89V290.74Z" fill="#E2E2EC"/>
<path id="Vector_54" d="M497.35 378.51H397.36V464.79H497.35V378.51Z" fill="white"/>
<path id="Vector_55" d="M496.82 379.01V464.29H397.82V379.01H496.82ZM497.82 378.01H396.82V465.29H497.82V378.01Z" fill="#E2E2EC"/>
<path id="Vector_56" d="M396.36 378.51H296.37V464.79H396.36V378.51Z" fill="white"/>
<path id="Vector_57" d="M395.82 379.01V464.29H296.82V379.01H395.82ZM396.82 378.01H295.82V465.29H396.82V378.01Z" fill="#E2E2EC"/>
<path id="Vector_58" d="M295.37 378.51H195.38V464.79H295.37V378.51Z" fill="white"/>
<path id="Vector_59" d="M294.87 379.01V464.29H195.87V379.01H294.87ZM295.87 378.01H194.87V465.29H295.87V378.01Z" fill="#E2E2EC"/>
<path id="Vector_60" d="M194.38 378.51H94.39V464.79H194.38V378.51Z" fill="white"/>
<path id="Vector_61" d="M193.88 379.01V464.29H94.88V379.01H193.88ZM194.88 378.01H93.88V465.29H194.88V378.01Z" fill="#E2E2EC"/>
<path id="Vector_62" d="M93.39 378.51H-6.60001V464.79H93.39V378.51Z" fill="white"/>
<path id="Vector_63" d="M92.89 379.01V464.29H-6.10999V379.01H92.89ZM93.89 378.01H-7.10999V465.29H93.89V378.01Z" fill="#E2E2EC"/>
<path id="Vector_64" d="M203.42 543.89C206.28 541.72 208.97 539.16 209.8 536.04C210.226 534.389 210 532.637 209.17 531.148C208.34 529.659 206.968 528.546 205.34 528.04C201.25 526.76 196.88 529.04 193.56 531.41C190.24 533.78 186.45 536.41 182.11 535.92C186.6 532.67 188.74 527.4 187.5 522.61C187.287 521.578 186.764 520.636 186 519.91C183.73 517.91 179.61 518.78 176.89 520.34C168.24 525.34 165.83 534.89 165.78 543.52C164.91 540.41 165.64 537.17 165.62 533.97C165.6 530.77 164.53 527.24 161.23 525.52C159.118 524.604 156.831 524.164 154.53 524.23C150.64 524.11 146.31 524.43 143.66 526.75C140.36 529.63 141.22 534.47 144.09 537.64C146.96 540.81 151.33 542.8 155.34 544.99C158.4 546.66 161.5 548.61 163.34 551.25C163.581 551.6 163.783 551.975 163.94 552.37H188.31C193.678 550.179 198.754 547.331 203.42 543.89V543.89Z" fill="#FFCA3D"/>
<path id="Vector_65" d="M6.59001 48.23C9.73804 48.23 12.29 45.678 12.29 42.53C12.29 39.382 9.73804 36.83 6.59001 36.83C3.44199 36.83 0.890015 39.382 0.890015 42.53C0.890015 45.678 3.44199 48.23 6.59001 48.23Z" fill="#020C53"/>
<path id="Vector_66" d="M20.83 48.23C23.978 48.23 26.53 45.678 26.53 42.53C26.53 39.382 23.978 36.83 20.83 36.83C17.682 36.83 15.13 39.382 15.13 42.53C15.13 45.678 17.682 48.23 20.83 48.23Z" fill="#FFCA3D"/>
<path id="Vector_67" d="M207.87 132.73C211.018 132.73 213.57 130.178 213.57 127.03C213.57 123.882 211.018 121.33 207.87 121.33C204.722 121.33 202.17 123.882 202.17 127.03C202.17 130.178 204.722 132.73 207.87 132.73Z" fill="#020C53"/>
<path id="Vector_68" d="M222.12 132.73C225.268 132.73 227.82 130.178 227.82 127.03C227.82 123.882 225.268 121.33 222.12 121.33C218.972 121.33 216.42 123.882 216.42 127.03C216.42 130.178 218.972 132.73 222.12 132.73Z" fill="#020C53"/>
<path id="Vector_69" d="M512.64 296.03C515.788 296.03 518.34 293.478 518.34 290.33C518.34 287.182 515.788 284.63 512.64 284.63C509.492 284.63 506.94 287.182 506.94 290.33C506.94 293.478 509.492 296.03 512.64 296.03Z" fill="#6C63FF"/>
<path id="Vector_70" d="M515.49 289.39C518.638 289.39 521.19 286.838 521.19 283.69C521.19 280.542 518.638 277.99 515.49 277.99C512.342 277.99 509.79 280.542 509.79 283.69C509.79 286.838 512.342 289.39 515.49 289.39Z" fill="#6C63FF"/>
<path id="Vector_71" d="M518.34 283.69C521.488 283.69 524.04 281.138 524.04 277.99C524.04 274.842 521.488 272.29 518.34 272.29C515.192 272.29 512.64 274.842 512.64 277.99C512.64 281.138 515.192 283.69 518.34 283.69Z" fill="#6C63FF"/>
<path id="Vector_72" d="M412 48.23C415.148 48.23 417.7 45.678 417.7 42.53C417.7 39.382 415.148 36.83 412 36.83C408.852 36.83 406.3 39.382 406.3 42.53C406.3 45.678 408.852 48.23 412 48.23Z" fill="#020C53"/>
<path id="Vector_73" d="M426.24 48.23C429.388 48.23 431.94 45.678 431.94 42.53C431.94 39.382 429.388 36.83 426.24 36.83C423.092 36.83 420.54 39.382 420.54 42.53C420.54 45.678 423.092 48.23 426.24 48.23Z" fill="#020C53"/>
<path id="Vector_74" d="M440.49 48.23C443.638 48.23 446.19 45.678 446.19 42.53C446.19 39.382 443.638 36.83 440.49 36.83C437.342 36.83 434.79 39.382 434.79 42.53C434.79 45.678 437.342 48.23 440.49 48.23Z" fill="#020C53"/>
<path id="Vector_75" d="M454.73 48.23C457.878 48.23 460.43 45.678 460.43 42.53C460.43 39.382 457.878 36.83 454.73 36.83C451.582 36.83 449.03 39.382 449.03 42.53C449.03 45.678 451.582 48.23 454.73 48.23Z" fill="#020C53"/>
<path id="Vector_76" d="M412 224.82C415.148 224.82 417.7 222.268 417.7 219.12C417.7 215.972 415.148 213.42 412 213.42C408.852 213.42 406.3 215.972 406.3 219.12C406.3 222.268 408.852 224.82 412 224.82Z" fill="#FFCA3D"/>
<path id="Vector_77" d="M426.24 224.82C429.388 224.82 431.94 222.268 431.94 219.12C431.94 215.972 429.388 213.42 426.24 213.42C423.092 213.42 420.54 215.972 420.54 219.12C420.54 222.268 423.092 224.82 426.24 224.82Z" fill="#FFCA3D"/>
<path id="Vector_78" d="M440.49 224.82C443.638 224.82 446.19 222.268 446.19 219.12C446.19 215.972 443.638 213.42 440.49 213.42C437.342 213.42 434.79 215.972 434.79 219.12C434.79 222.268 437.342 224.82 440.49 224.82Z" fill="#FFCA3D"/>
<path id="Vector_79" d="M454.73 224.82C457.878 224.82 460.43 222.268 460.43 219.12C460.43 215.972 457.878 213.42 454.73 213.42C451.582 213.42 449.03 215.972 449.03 219.12C449.03 222.268 451.582 224.82 454.73 224.82Z" fill="#FFCA3D"/>
<path id="Vector_80" d="M107.23 132.73C110.378 132.73 112.93 130.178 112.93 127.03C112.93 123.882 110.378 121.33 107.23 121.33C104.082 121.33 101.53 123.882 101.53 127.03C101.53 130.178 104.082 132.73 107.23 132.73Z" fill="#FFCA3D"/>
<path id="Vector_81" d="M6.59001 219.13C9.73804 219.13 12.29 216.578 12.29 213.43C12.29 210.282 9.73804 207.73 6.59001 207.73C3.44199 207.73 0.890015 210.282 0.890015 213.43C0.890015 216.578 3.44199 219.13 6.59001 219.13Z" fill="#020C53"/>
<path id="Vector_82" d="M507.72 304.63C513.97 308.32 523.72 310.72 536.07 302.79L535.95 320.35C536.83 332.35 551.72 376.26 551.72 376.26L562.22 412.36C569.744 437.863 573.629 464.301 573.76 490.89C573.76 499.7 574.58 508.78 577.11 515.61C582.7 530.72 574.91 550.19 571.53 557.44C565.841 559.362 560.056 560.991 554.2 562.32C553.673 562.441 553.155 562.598 552.65 562.79L552.58 562.69C552.58 562.69 536.82 568.94 529.82 568.08C524.6 567.44 521.33 573.95 525.42 578.74C521.56 579.74 517.6 580.45 514.93 580.12C507.93 579.26 504.42 591.3 517.56 594.74C530.7 598.18 605.15 594.74 605.15 594.74C607.244 593.692 608.93 591.978 609.944 589.868C610.958 587.757 611.241 585.369 610.75 583.08C616.47 582.86 620.04 582.69 620.04 582.69C620.04 582.69 633.18 576.69 620.04 560.32L619.34 560.85L616.53 552.58V541.41C616.53 541.41 633.17 461.41 627.92 451.95C622.67 442.49 620.04 394.32 620.04 394.32L621.82 341.85C626.57 332.05 629 316.69 630.23 304.68C632.017 298.95 633.144 293.035 633.59 287.05C633.8 284.23 633.97 281.27 634.08 278.2C634.124 271.466 633.022 264.774 630.82 258.41C635.82 251.21 643.95 240.08 650.66 233.5C661.17 223.18 658.54 211.13 658.54 211.13L654.16 181.88L643.65 131.99C644.97 118.15 642.08 110.18 638.89 105.68C639.65 101.21 640.36 96.74 640.89 92.25C643.22 72.7246 642.181 52.9442 637.82 33.77C636.3 27.08 634.23 20.22 629.54 15.15C624.23 9.41001 615.61 5.91 613.63 -1.61C613.14 -3.48 613.12 -5.46999 612.41 -7.26999C610.49 -12.19 604.41 -13.98 599.09 -14.62C589.61 -15.77 575.9 -16.62 566.79 -12.92C560.43 -10.32 551.67 -3.15999 548.19 4.52001C546.19 8.05001 545.26 11.76 546.11 15.25C546.445 16.5359 546.953 17.7705 547.62 18.92C546.263 22.5984 545.572 26.4892 545.58 30.41C545.612 37.1498 547.672 43.7238 551.492 49.2762C555.313 54.8286 560.717 59.102 567 61.54C567.21 62.2 567.4 62.85 567.56 63.49C567.958 65.0309 568.245 66.5982 568.42 68.18C568.25 71.18 568.06 74.27 567.92 77.32C567.82 77.74 567.713 78.1533 567.6 78.56C560.067 81.8951 552.723 85.6407 545.6 89.78C550.86 97.52 544.72 130.21 544.72 130.21C531.58 137.95 518.44 157.74 532.46 178.38C546.48 199.02 538.59 221.38 538.59 221.38L536.4 255.01V255.07L535.96 261.8H536.13L535.96 264.35L536.34 264.42V267.16C530.19 269.42 521.2 273.98 515.84 282.41C513.305 286.557 510.221 290.341 506.67 293.66C505.854 294.366 505.219 295.257 504.818 296.258C504.417 297.259 504.261 298.342 504.364 299.416C504.467 300.49 504.825 301.523 505.409 302.43C505.993 303.338 506.785 304.092 507.72 304.63ZM613.48 215.27C612.953 209.452 614.028 203.6 616.59 198.35C618.65 198.39 620.713 198.413 622.78 198.42C622.99 199.87 623.24 201.25 623.54 202.51C625.32 210.09 618.21 213.72 613.47 215.26L613.48 215.27Z" fill="url(#paint1_linear)"/>
<path id="Vector_83" d="M615.21 548.66L618.58 558.77L607.58 569.77L571.34 578.2L545.21 575.67L546.9 566.4C547.399 564.407 548.438 562.59 549.902 561.149C551.366 559.708 553.199 558.698 555.2 558.23C565.94 555.71 586.42 549.95 590.72 541.96L615.21 548.66Z" fill="#DB8B8B"/>
<path id="Vector_84" opacity="0.1" d="M615.21 548.66L618.58 558.77L607.58 569.77L571.34 578.2L545.21 575.67L546.9 566.4C547.399 564.407 548.438 562.59 549.902 561.149C551.366 559.708 553.199 558.698 555.2 558.23C565.94 555.71 586.42 549.95 590.72 541.96L615.21 548.66Z" fill="black"/>
<path id="Vector_85" d="M553.68 573.1L558.74 566.36L553.68 558.55C553.68 558.55 538.51 564.67 531.77 563.83C525.03 562.99 521.66 574.83 534.3 578.16C546.94 581.49 618.58 578.16 618.58 578.16C618.58 578.16 631.22 572.26 618.58 556.25L607.58 564.68C607.58 564.68 589.04 574.79 579.77 573.11L553.68 573.1Z" fill="#2E3037"/>
<path id="Vector_86" d="M530.92 587.41L557.05 589.94L593.29 581.51L604.29 570.51L603.4 567.83L602.14 564.07L600.88 560.41L576.44 553.67C575.191 555.708 573.478 557.421 571.44 558.67C563.5 564.1 549.24 568.02 540.87 569.98C540.531 570.063 540.197 570.167 539.87 570.29C538.097 570.886 536.503 571.918 535.235 573.291C533.966 574.665 533.063 576.336 532.61 578.15L530.92 587.41Z" fill="#DB8B8B"/>
<path id="Vector_87" opacity="0.1" d="M530.92 587.41L557.05 589.94L593.29 581.51L604.29 570.51L603.4 567.83L593.34 575.57C593.34 575.57 574.8 585.68 565.53 584H539.35L544.41 577.26L539.87 570.26C538.097 570.855 536.503 571.888 535.235 573.261C533.966 574.635 533.063 576.306 532.61 578.12L530.92 587.41Z" fill="black"/>
<path id="Vector_88" d="M539.35 584.9L544.41 578.16L539.35 570.35C539.35 570.35 524.18 576.47 517.44 575.63C510.7 574.79 507.33 586.63 519.97 589.96C532.61 593.29 604.25 589.96 604.25 589.96C604.25 589.96 616.89 584.06 604.25 568.05L593.25 576.48C593.25 576.48 574.71 586.59 565.44 584.91L539.35 584.9Z" fill="#2E3037"/>
<path id="Vector_89" d="M560.42 96.07C560.42 96.07 600.88 100.28 594.98 83.43C593.33 78.6516 592.901 73.5367 593.73 68.55C594.779 62.3675 597.225 56.5056 600.88 51.41L562.95 57.31C565.223 61.1106 566.953 65.2102 568.09 69.49C572.61 87.36 560.42 96.07 560.42 96.07Z" fill="#DB8B8B"/>
<path id="Vector_90" d="M629.53 288.23C629.53 288.23 628.69 324.47 620.26 342.17L618.57 393.58C618.57 393.58 621.1 440.78 626.16 450.05C631.22 459.32 615.16 537.7 615.16 537.7V551.19C615.16 551.19 588.16 561.3 580.6 549.5L588.19 449.2L584.82 310.14L629.53 288.23Z" fill="#0B1872"/>
<path id="Vector_91" d="M646.39 171.92L651.45 185.41L655.66 214.07C656.229 218.062 655.837 222.133 654.517 225.944C653.197 229.754 650.987 233.195 648.07 235.98C637.96 246.09 624.47 267.16 624.47 267.16L608.47 219.16C608.47 219.16 624.47 216.63 621.96 205.67C619.45 194.71 620.26 174.41 620.26 174.41L646.39 171.92Z" fill="#FC6681"/>
<path id="Vector_92" opacity="0.05" d="M646.39 171.92L651.45 185.41L655.66 214.07C656.229 218.062 655.837 222.133 654.517 225.944C653.197 229.754 650.987 233.195 648.07 235.98C637.96 246.09 624.47 267.16 624.47 267.16L608.47 219.16C608.47 219.16 624.47 216.63 621.96 205.67C619.45 194.71 620.26 174.41 620.26 174.41L646.39 171.92Z" fill="black"/>
<path id="Vector_93" opacity="0.1" d="M571.48 558.68C582.29 575.68 599.12 566.05 602.1 564.13L600.88 560.41L576.44 553.67C575.204 555.707 573.505 557.424 571.48 558.68V558.68Z" fill="black"/>
<path id="Vector_94" d="M537.67 321.1C538.51 332.9 552.84 375.88 552.84 375.88L562.95 411.25C570.195 436.259 573.934 462.153 574.06 488.19C574.06 496.82 574.85 505.72 577.29 512.41C584.03 530.95 570.55 556.24 570.55 556.24C582.35 577.31 602.55 562.98 602.55 562.98V549.5C602.55 549.5 618.55 476.17 614.35 461.85C610.15 447.53 608.45 408.75 608.45 408.75V338.75C621.951 325.297 630.161 307.436 631.58 288.43C631.78 285.67 631.94 282.77 632.05 279.76C632.73 260.76 619.73 238.45 614.65 230.51C613.43 228.59 612.65 227.51 612.65 227.51L538.23 257.03L538.06 257.1V259.98V266.35L537.67 321.1Z" fill="#020C53"/>
<path id="Vector_95" opacity="0.1" d="M562.95 57.3C565.223 61.1006 566.953 65.2003 568.09 69.48C572.21 71.0432 576.601 71.7653 581.005 71.6039C585.409 71.4424 589.735 70.4007 593.73 68.54C594.781 62.361 597.226 56.5026 600.88 51.41L562.95 57.3Z" fill="black"/>
<path id="Vector_96" d="M579.81 69.93C597.964 69.93 612.68 55.2136 612.68 37.06C612.68 18.9064 597.964 4.19 579.81 4.19C561.656 4.19 546.94 18.9064 546.94 37.06C546.94 55.2136 561.656 69.93 579.81 69.93Z" fill="#DB8B8B"/>
<path id="Vector_97" opacity="0.1" d="M537.67 266.32L538.03 266.39C573.37 273.66 617.74 236.82 617.74 236.82C616.551 234.815 615.524 232.719 614.67 230.55C613.45 228.63 612.67 227.55 612.67 227.55L538.25 257.07L538.06 260.02L537.67 266.32Z" fill="black"/>
<path id="Vector_98" d="M546.94 95.22C546.94 95.22 594.14 66.56 609.31 78.36L630.38 105.36C630.38 105.36 643.87 109.57 641.38 136.54L651.45 185.41L621.11 193C621.11 193 603.41 209.86 617.74 234.3C617.74 234.3 573.07 271.38 537.67 263.8L540.2 224.19C540.2 224.19 547.79 202.28 534.3 182.05C520.81 161.82 533.46 142.44 546.1 134.85C546.1 134.84 551.99 102.81 546.94 95.22Z" fill="#FFCA3D"/>
<path id="Vector_99" d="M544.41 267.16C544.41 267.16 526.71 270.53 518.28 284.02C515.848 288.066 512.881 291.766 509.46 295.02C508.69 295.718 508.094 296.586 507.718 297.554C507.342 298.523 507.197 299.566 507.294 300.6C507.391 301.635 507.728 302.632 508.277 303.514C508.827 304.396 509.574 305.137 510.46 305.68C517.15 309.68 528.06 312.17 541.84 300.85C565.48 281.49 544.41 267.16 544.41 267.16Z" fill="#DB8B8B"/>
<path id="Vector_100" opacity="0.1" d="M570.54 111.24C570.54 111.24 587.4 109.55 591.61 153.38C595.82 197.21 602.61 207.32 602.61 207.32C602.61 207.32 606.82 230.08 596.71 243.56C586.6 257.04 567.21 285.7 567.21 285.7C567.21 285.7 546.14 291.6 541.93 270.53L568.06 221.65C568.06 221.65 572.27 204.79 562.16 192.99C552.05 181.19 544.41 102.81 570.54 111.24Z" fill="black"/>
<path id="Vector_101" d="M568.82 108.71C568.82 108.71 585.68 107.02 589.89 150.85C594.1 194.68 600.89 204.79 600.89 204.79C600.89 204.79 605.1 227.55 594.99 241.03C584.88 254.51 565.49 283.17 565.49 283.17C565.49 283.17 544.42 289.07 540.21 268L566.34 219.12C566.34 219.12 570.55 202.26 560.44 190.46C550.33 178.66 542.72 100.28 568.82 108.71Z" fill="#FFCA3D"/>
<path id="Vector_102" opacity="0.1" d="M554.94 140.31C554.94 140.31 553.26 166.41 560.82 180.77C568.38 195.13 568.41 213.64 560.82 223.77" fill="black"/>
<path id="Vector_103" opacity="0.1" d="M550.73 108.29C550.73 108.29 557.47 101.55 576.86 100.7C596.25 99.85 604.67 93.96 604.67 93.96" fill="black"/>
<path id="Vector_104" opacity="0.1" d="M597.61 -5.40998C602.73 -4.77998 608.61 -3.01997 610.43 1.79003C611.11 3.56003 611.13 5.51002 611.6 7.34002C613.51 14.7 621.8 18.13 626.91 23.76C631.42 28.76 633.41 35.45 634.91 42C639.118 60.7828 640.132 80.1403 637.91 99.26C636.27 113.26 632.91 127 631.97 141.04C631.03 155.08 632.75 169.85 640.42 181.65C643.72 186.72 648.08 191.18 650.42 196.76C645.59 200.68 638.92 201.24 632.69 201.45C625.443 201.697 618.193 201.697 610.94 201.45C607.14 201.32 603.17 201.07 599.89 199.15C597.461 197.597 595.466 195.453 594.09 192.92C589.94 185.92 588.9 177.42 589.09 169.26C589.28 161.1 590.56 152.98 590.71 144.81C590.79 140.36 590.44 135.63 587.88 131.99C586.03 129.36 583.22 127.59 580.82 125.46C571.82 117.46 568.7 104.64 568.4 92.59C568.1 80.54 570.09 68.47 569.07 56.46C568.67 51.76 566.91 46.11 562.29 45.2C560.83 44.91 559.29 45.2 557.89 44.64C554.18 43.21 554.54 37.98 553.48 34.15C552.29 29.85 548.62 26.53 547.59 22.15C545.16 11.95 558.14 -0.219969 566.65 -3.76997C575.3 -7.38997 588.49 -6.52998 597.61 -5.40998Z" fill="black"/>
<path id="Vector_105" d="M598.45 -7.09C603.57 -6.46 609.45 -4.7 611.27 0.109996C611.95 1.88 611.97 3.83 612.44 5.66C614.35 13.02 622.64 16.45 627.75 22.08C632.26 27.08 634.25 33.77 635.75 40.32C639.958 59.1028 640.972 78.4603 638.75 97.58C637.11 111.58 633.75 125.32 632.81 139.36C631.87 153.4 633.59 168.17 641.26 179.97C644.56 185.04 648.92 189.5 651.26 195.08C646.43 199 639.76 199.56 633.53 199.77C626.283 200.017 619.033 200.017 611.78 199.77C607.98 199.64 604.01 199.39 600.73 197.47C598.301 195.917 596.306 193.773 594.93 191.24C590.78 184.24 589.74 175.74 589.93 167.58C590.12 159.42 591.4 151.3 591.55 143.13C591.63 138.68 591.28 133.95 588.72 130.31C586.87 127.68 584.06 125.91 581.66 123.78C572.66 115.78 569.54 102.96 569.24 90.91C568.94 78.86 570.93 66.79 569.91 54.78C569.51 50.08 567.75 44.43 563.13 43.52C561.67 43.23 560.13 43.52 558.73 42.96C555.02 41.53 555.38 36.3 554.32 32.47C553.13 28.17 549.46 24.85 548.43 20.47C546 10.27 558.98 -1.9 567.49 -5.45C576.14 -9.08 589.33 -8.22 598.45 -7.09Z" fill="#472727"/>
</g>
<defs>
<linearGradient id="paint0_linear" x1="245.38" y1="534.72" x2="245.38" y2="-127.8" gradientUnits="userSpaceOnUse">
<stop stop-color="#808080" stop-opacity="0.25"/>
<stop offset="0.54" stop-color="#808080" stop-opacity="0.12"/>
<stop offset="1" stop-color="#808080" stop-opacity="0.1"/>
</linearGradient>
<linearGradient id="paint1_linear" x1="-281823" y1="493686" x2="-281823" y2="119287" gradientUnits="userSpaceOnUse">
<stop stop-color="#808080" stop-opacity="0.25"/>
<stop offset="0.54" stop-color="#808080" stop-opacity="0.12"/>
<stop offset="1" stop-color="#808080" stop-opacity="0.1"/>
</linearGradient>
<clipPath id="clip0">
<rect width="965.64" height="800.81" fill="white" transform="translate(-233 -161)"/>
</clipPath>
</defs>
</svg>
